<svg width="338" height="358" viewBox="0 0 338 358" fill="none" xmlns="http://www.w3.org/2000/svg">
<path d="M19.2626 5.60157C11.7298 5.60157 5.60336 11.7315 5.60336 19.2606V338.739C5.60336 346.273 11.7298 352.398 19.2626 352.398H318.37C325.903 352.398 332.031 346.273 332.031 338.739V19.2606C332.031 11.7315 325.903 5.60157 318.37 5.60157H19.2626ZM318.37 358H19.2626C8.64214 358 0 349.359 0 338.739V19.2606C0 8.6411 8.64214 -4.02814e-06 19.2626 -4.02814e-06H318.37C328.992 -4.02814e-06 337.633 8.6411 337.633 19.2606V338.739C337.633 349.359 328.992 358 318.37 358" fill="#E1FF2D"/>
<path d="M201.409 355.202H70.5308V2.79907H201.409V355.202Z" fill="#D3B7F9"/>
<path d="M73.3324 352.398H198.607V5.60157H73.3324V352.398ZM204.208 358H67.7307V-4.02814e-06H204.208V358Z" fill="#E1FF2D"/>
<path d="M73.3324 355.202H67.7307V2.79907H73.3324V355.202Z" fill="#E1FF2D"/>
<path d="M204.208 355.202H198.607V2.79907H204.208V355.202Z" fill="#E1FF2D"/>
<path d="M191.06 200.77C189.512 200.77 188.258 199.514 188.258 197.971V165.089C188.258 163.541 189.512 162.29 191.06 162.29C192.607 162.29 193.861 163.541 193.861 165.089V197.971C193.861 199.514 192.607 200.77 191.06 200.77Z" fill="#E1FF2D"/>
<path d="M211.428 200.77C209.882 200.77 208.628 199.514 208.628 197.971V165.089C208.628 163.541 209.882 162.29 211.428 162.29C212.976 162.29 214.23 163.541 214.23 165.089V197.971C214.23 199.514 212.976 200.77 211.428 200.77Z" fill="#E1FF2D"/>
<path d="M72.3262 274.064H1.27417V268.462H72.3262V274.064Z" fill="#E1FF2D"/>
<path d="M72.3262 184.331H1.27417V178.729H72.3262V184.331Z" fill="#E1FF2D"/>
<path d="M72.3262 97.7764H1.27417V92.1747H72.3262V97.7764Z" fill="#E1FF2D"/>
<path d="M69.5138 271.261H25.0125V259.969H69.5138V271.261Z" fill="#2C2A2D"/>
<path d="M27.814 268.462H66.7119V262.768H27.814V268.462ZM72.3135 274.064H22.2124V257.166H72.3135V274.064" fill="#E1FF2D"/>
<path d="M61.9142 246.82H17.4146V235.524H61.9142V246.82" fill="#2C2A2D"/>
<path d="M20.2148 244.017H59.1144V238.327H20.2148V244.017ZM64.7156 249.619H14.613V232.726H64.7156V249.619" fill="#E1FF2D"/>
<path d="M51.7189 67.8774C51.7189 71.9825 48.3904 75.3139 44.2839 75.3139C40.1774 75.3139 36.8489 71.9825 36.8489 67.8774C36.8489 63.7723 40.1774 60.441 44.2839 60.441C48.3904 60.441 51.7189 63.7723 51.7189 67.8774Z" fill="#2C2A2D"/>
<path d="M44.284 63.2446C41.7283 63.2446 39.6507 65.3249 39.6507 67.8778C39.6507 70.4354 41.7283 72.5111 44.284 72.5111C46.8393 72.5111 48.9191 70.4354 48.9191 67.8778C48.9191 65.3249 46.8393 63.2446 44.284 63.2446ZM44.284 78.1127C38.6407 78.1127 34.0491 73.5212 34.0491 67.8778C34.0491 62.2345 38.6407 57.6429 44.284 57.6429C49.9287 57.6429 54.5208 62.2345 54.5208 67.8778C54.5208 73.5212 49.9287 78.1127 44.284 78.1127Z" fill="#E1FF2D"/>
<path d="M58.5061 258.621H14.0049V247.33H58.5061V258.621Z" fill="#2C2A2D"/>
<path d="M16.8066 255.818H55.7044V250.128H16.8066V255.818ZM61.306 261.42H11.2051V244.527H61.306V261.42Z" fill="#E1FF2D"/>
<path d="M42.2657 70.5562C42.2657 75.8614 37.9674 80.1564 32.6665 80.1564C27.3651 80.1564 23.0686 75.8614 23.0686 70.5562C23.0686 65.2558 27.3651 60.9607 32.6665 60.9607C37.9674 60.9607 42.2657 65.2558 42.2657 70.5562Z" fill="#2C2A2D"/>
<path d="M32.6664 63.7591C28.9181 63.7591 25.8685 66.8125 25.8685 70.5608C25.8685 74.3092 28.9181 77.3578 32.6664 77.3578C36.4143 77.3578 39.4639 74.3092 39.4639 70.5608C39.4639 66.8125 36.4143 63.7591 32.6664 63.7591ZM32.6664 82.9595C25.8305 82.9595 20.2668 77.3949 20.2668 70.5608C20.2668 63.7221 25.8305 58.1575 32.6664 58.1575C39.5038 58.1575 45.0656 63.7221 45.0656 70.5608C45.0656 77.3949 39.5038 82.9595 32.6664 82.9595Z" fill="#E1FF2D"/>
<path d="M35.4895 70.699H16.8643C16.8643 70.699 19.3421 90.1079 37.8192 90.1079C56.2962 90.1079 58.5059 70.699 58.5059 70.699H35.4895Z" fill="#2C2A2D"/>
<path d="M23.1253 76.1511C24.4978 80.6759 28.4503 88.8521 39.1002 88.8521C49.7464 88.8521 53.575 80.6631 54.8741 76.1511H23.1253ZM39.1002 94.0033C23.9309 94.0033 18.2513 80.8548 17.3679 73.9057L17 71H60.9153L60.5903 73.8674C59.8016 80.8336 54.2942 94.0033 39.1002 94.0033Z" fill="#E1FF2D"/>
</svg>
