<svg width="126" height="106" viewBox="0 0 63 58" fill="none" xmlns="http://www.w3.org/2000/svg">
<path d="M38.9777 10.5575H23.1105C22.185 10.5575 21.4348 11.3078 21.4348 12.2333V34.5086C21.4348 35.4341 22.185 36.1844 23.1105 36.1844H38.9777C39.9032 36.1844 40.6535 35.4341 40.6535 34.5086V12.2333C40.6535 11.3078 39.9032 10.5575 38.9777 10.5575Z" stroke="white" stroke-width="2.68359"/>
<path d="M31.0441 35.494V10.5575" stroke="white" stroke-width="2.68359"/>
<path d="M23.5112 38.8345V35.7056" stroke="white" stroke-width="2.68359"/>
<path d="M38.5154 38.8345V35.4439" stroke="white" stroke-width="2.68359"/>
<path d="M34.2341 24.9215V22.071" stroke="white" stroke-width="1.67023" stroke-linecap="round"/>
<path d="M50.1146 37.5142C48.1329 37.5142 46.2275 37.1967 44.3983 36.5615C42.5945 35.9264 41.1971 35.088 40.2063 34.0464L41.3115 31.8742C42.2769 32.8396 43.5599 33.6272 45.1604 34.2369C46.761 34.8212 48.4124 35.1134 50.1146 35.1134C52.5027 35.1134 54.2938 34.6815 55.4879 33.8177C56.6819 32.9285 57.279 31.7852 57.279 30.3879C57.279 29.3209 56.9487 28.4698 56.2882 27.8347C55.653 27.1995 54.8654 26.7168 53.9254 26.3865C52.9854 26.0308 51.677 25.6498 50.0002 25.2433C47.9932 24.7352 46.3926 24.2524 45.1986 23.7951C44.0045 23.3124 42.9756 22.5884 42.1118 21.623C41.2734 20.6575 40.8542 19.3491 40.8542 17.6978C40.8542 16.3513 41.2099 15.1318 41.9212 14.0393C42.6326 12.9215 43.725 12.0323 45.1986 11.3717C46.6721 10.7112 48.5013 10.3809 50.6862 10.3809C52.2105 10.3809 53.6968 10.5969 55.1449 11.0288C56.6184 11.4353 57.8887 12.0069 58.9558 12.7436L58.003 14.9921C56.8852 14.2553 55.6911 13.7091 54.4208 13.3534C53.1505 12.9723 51.9057 12.7818 50.6862 12.7818C48.3489 12.7818 46.5832 13.2391 45.3891 14.1537C44.2204 15.0429 43.6361 16.1988 43.6361 17.6215C43.6361 18.6886 43.9537 19.5524 44.5888 20.2129C45.2494 20.8481 46.0623 21.3435 47.0278 21.6992C48.0186 22.0294 49.3397 22.3978 50.9911 22.8043C52.9473 23.287 54.5225 23.7697 55.7165 24.2524C56.936 24.7097 57.9649 25.4211 58.8033 26.3865C59.6417 27.3265 60.0609 28.6095 60.0609 30.2355C60.0609 31.582 59.6925 32.8142 58.9558 33.932C58.2444 35.0245 57.1392 35.901 55.6403 36.5615C54.1414 37.1967 52.2995 37.5142 50.1146 37.5142Z" fill="white"/>
<path d="M14.3977 12.4138C11.8364 12.4138 9.9217 12.9982 8.65352 14.1669C7.41019 15.3108 6.78853 16.9768 6.78853 19.165V22.8204H19.2466V25.2076H6.78853V36.2856H4.02836V19.1278C4.02836 16.2681 4.92355 14.0301 6.71393 12.4138C8.50432 10.7726 11.0283 9.95204 14.2858 9.95204C17.4438 9.95204 19.9802 10.6359 21.8949 12.0035L20.8878 14.2788C19.1969 13.0355 17.0335 12.4138 14.3977 12.4138Z" fill="white"/>
</svg>
